<svg width="156" height="30" viewBox="0 0 156 30" xmlns="http://www.w3.org/2000/svg" xmlns:xlink="http://www.w3.org/1999/xlink"><title>logo-small</title><defs><path d="M46.53 11.58V0H0v30h46.53v-8.05c-1.728-.73-2.973-2.776-2.973-5.185 0-2.41 1.245-4.455 2.974-5.185z" id="c"/><rect id="a" width="22.741" height="30" rx="5"/><mask id="e" x="0" y="0" width="22.741" height="30" fill="#fff"><use xlink:href="#a"/></mask><rect id="b" x="23.792" width="22.741" height="30" rx="5"/><mask id="f" x="0" y="0" width="22.741" height="30" fill="#fff"><use xlink:href="#b"/></mask></defs><g fill="none" fill-rule="evenodd"><mask id="d" fill="#fff"><use xlink:href="#c"/></mask><g mask="url(#d)" stroke="#E9E9E9"><use mask="url(#e)" stroke-width="6" stroke-linecap="round" stroke-linejoin="round" fill="#F7F7F7" xlink:href="#a"/><path d="M5.51 1.224v22.654M5.51 6.735H1.224M5.51 12.245H1.224M5.16 17.755H1.59M5.51 23.265H1.224" stroke-width="2"/><use mask="url(#f)" stroke-width="6" stroke-linecap="round" stroke-linejoin="round" fill="#F7F7F7" xlink:href="#b"/></g><path d="M33.932 22.94h3.06l3.84-11.29h-2.553l-1.795 5.864c-.322 1.104-.644 2.254-.966 3.404h-.093c-.3-1.15-.644-2.3-.943-3.404L32.69 11.65H30l3.932 11.29zm7.54-5.633c0 3.726 2.436 5.91 5.564 5.91 1.426 0 2.782-.506 3.863-1.22L50 20.344c-.828.53-1.655.827-2.62.827-1.818 0-3.106-1.15-3.336-3.196h7.175c.07-.276.116-.736.116-1.242 0-3.15-1.61-5.358-4.668-5.358-2.645 0-5.197 2.254-5.197 5.933zm2.55-1.012c.23-1.885 1.38-2.874 2.715-2.874 1.54 0 2.3 1.082 2.3 2.875h-5.014zm8.785 6.646h2.644v-6.898c.69-1.7 1.772-2.322 2.67-2.322.482 0 .78.07 1.172.184l.46-2.3c-.345-.16-.713-.23-1.288-.23-1.196 0-2.392.805-3.197 2.277h-.092l-.184-2h-2.183v11.29zm9.064 2.347l-.48 2.07c.412.137.85.23 1.47.23 2.46 0 3.634-1.587 4.577-4.14L71.53 11.65h-2.553l-1.7 5.542c-.277 1.012-.576 2.14-.852 3.174h-.092c-.345-1.058-.667-2.185-.99-3.174L63.39 11.65H60.7l4.437 11.153-.207.713c-.368 1.127-1.058 1.932-2.254 1.932-.276 0-.598-.092-.805-.16zm10.94-2.346h2.667v-5.518h2.39c3.22 0 5.704-1.54 5.704-4.875 0-3.495-2.413-4.645-5.702-4.645h-5.06v15.04zm2.667-7.656V10.04h2.16c2.186 0 3.313.62 3.313 2.507 0 1.84-1.058 2.737-3.312 2.737h-2.16zM84 17.307c0 3.75 2.552 5.91 5.358 5.91 2.828 0 5.38-2.16 5.38-5.91 0-3.77-2.552-5.933-5.38-5.933-2.806 0-5.358 2.162-5.358 5.933zm2.713 0c0-2.276.99-3.77 2.645-3.77s2.667 1.494 2.667 3.77c0 2.254-1.012 3.75-2.667 3.75-1.656 0-2.645-1.496-2.645-3.75zm9.765 2.737c0 1.954.69 3.173 2.576 3.173.62 0 1.08-.092 1.402-.23l-.345-1.977c-.206.046-.298.046-.413.046-.276 0-.574-.23-.574-.874V6.706h-2.645v13.338zm6.683-10.372c.944 0 1.634-.62 1.634-1.494 0-.897-.69-1.518-1.633-1.518-.942 0-1.63.62-1.63 1.518 0 .874.688 1.494 1.63 1.494zm-1.332 13.27h2.644V11.65h-2.644v11.29zm5.533-3.818c0 2.437.967 4.093 3.588 4.093.897 0 1.68-.207 2.3-.414l-.46-1.954c-.322.137-.782.25-1.173.25-1.08 0-1.586-.642-1.586-1.976v-5.38h2.873V11.65h-2.874V8.57h-2.21l-.32 3.08-1.75.115v1.978h1.61v5.38zm8.804-9.452c.943 0 1.633-.62 1.633-1.494 0-.897-.69-1.518-1.633-1.518-.943 0-1.632.62-1.632 1.518 0 .874.69 1.494 1.632 1.494zm-1.333 13.27h2.645V11.65h-2.644v11.29zm3.966-5.635c0 3.75 2.37 5.91 5.45 5.91 1.288 0 2.645-.506 3.703-1.45l-1.105-1.677c-.62.506-1.403.966-2.323.966-1.77 0-3.012-1.495-3.012-3.75 0-2.275 1.264-3.77 3.08-3.77.714 0 1.312.3 1.91.828l1.265-1.68c-.76-.735-1.863-1.31-3.312-1.31-3.012 0-5.657 2.162-5.657 5.933zm11.812-7.635c.942 0 1.632-.62 1.632-1.494 0-.897-.69-1.518-1.632-1.518-.943 0-1.633.62-1.633 1.518 0 .874.69 1.494 1.633 1.494zm-1.334 13.27h2.644V11.65h-2.644v11.29zm3.777-3.036c0 1.977 1.38 3.31 3.36 3.31 1.332 0 2.482-.666 3.494-1.517h.07l.206 1.24h2.16v-6.69c0-3.15-1.378-4.876-4.207-4.876-1.793 0-3.38.69-4.622 1.472l.967 1.77c.99-.597 2.047-1.103 3.173-1.103 1.518 0 2.024 1.012 2.047 2.207-4.622.506-6.646 1.77-6.646 4.186zm2.577-.207c0-1.128 1.01-1.933 4.07-2.324v2.53c-.828.782-1.54 1.24-2.46 1.24-.943 0-1.61-.435-1.61-1.447zm8.61 3.24h2.645v-7.886c.943-.92 1.587-1.403 2.576-1.403 1.24 0 1.77.69 1.77 2.553v6.738h2.645V15.86c0-2.85-1.058-4.484-3.473-4.484-1.54 0-2.69.805-3.702 1.794h-.092l-.184-1.518h-2.185v11.29z" fill="#333"/><g transform="translate(16.963 7.27)" fill="#333"><rect width="12.116" height="2.756" rx="1.378"/><rect y="6.196" width="12.116" height="2.756" rx="1.378"/><rect y="12.392" width="12.116" height="2.756" rx="1.378"/></g></g></svg>