<svg width="260" height="50" viewBox="0 0 260 50" xmlns="http://www.w3.org/2000/svg" xmlns:xlink="http://www.w3.org/1999/xlink"><title>logo-large</title><defs><path d="M77.55 19.3V0H0v50h77.55V36.582c-2.88-1.217-4.955-4.626-4.955-8.64 0-4.016 2.074-7.425 4.956-8.642z" id="c"/><rect id="a" width="37.901" height="50" rx="5"/><mask id="e" x="0" y="0" width="37.901" height="50" fill="#fff"><use xlink:href="#a"/></mask><rect id="b" x="39.653" width="37.901" height="50" rx="5"/><mask id="f" x="0" y="0" width="37.901" height="50" fill="#fff"><use xlink:href="#b"/></mask></defs><g fill="none" fill-rule="evenodd"><mask id="d" fill="#fff"><use xlink:href="#c"/></mask><g mask="url(#d)" stroke="#E9E9E9"><use mask="url(#e)" stroke-width="6" stroke-linecap="round" stroke-linejoin="round" fill="#F7F7F7" xlink:href="#a"/><path d="M9.184 2.04v37.756M9.184 11.224H2.04M9.184 20.408H2.04M8.602 29.592h-5.95M9.184 38.776H2.04" stroke-width="2"/><use mask="url(#f)" stroke-width="6" stroke-linecap="round" stroke-linejoin="round" fill="#F7F7F7" xlink:href="#b"/></g><path d="M57.375 38.235h5.098l6.4-18.818H64.62l-2.99 9.773c-.537 1.84-1.073 3.756-1.61 5.673h-.153c-.5-1.917-1.073-3.833-1.572-5.673l-2.99-9.773h-4.483l6.553 18.818zm12.564-9.39c0 6.21 4.062 9.85 9.275 9.85 2.376 0 4.637-.843 6.438-2.03l-1.494-2.76c-1.38.88-2.76 1.38-4.37 1.38-3.028 0-5.175-1.917-5.558-5.328H86.19c.115-.46.192-1.227.192-2.07 0-5.25-2.683-8.93-7.78-8.93-4.408 0-8.663 3.756-8.663 9.888zm4.254-1.686c.383-3.144 2.3-4.792 4.522-4.792 2.568 0 3.833 1.8 3.833 4.79h-8.356zm14.64 11.075h4.406V26.737c1.15-2.836 2.952-3.87 4.446-3.87.805 0 1.303.114 1.955.306l.768-3.833c-.575-.268-1.19-.383-2.147-.383-1.992 0-3.985 1.34-5.326 3.794h-.153l-.306-3.333h-3.64v18.818zm15.107 3.91l-.804 3.45c.69.23 1.418.382 2.453.382 4.1 0 6.054-2.644 7.626-6.9l6.822-19.66h-4.254l-2.837 9.237c-.46 1.686-.958 3.564-1.418 5.29h-.154c-.575-1.764-1.11-3.642-1.648-5.29l-3.258-9.237h-4.484l7.397 18.588-.345 1.188c-.613 1.878-1.763 3.22-3.756 3.22-.46 0-.996-.153-1.34-.268zm18.23-3.91h4.446v-9.198h3.986c5.366 0 9.505-2.568 9.505-8.125 0-5.826-4.024-7.742-9.505-7.742h-8.432v25.065zm4.446-12.762v-8.74h3.603c3.64 0 5.518 1.036 5.518 4.18 0 3.065-1.763 4.56-5.52 4.56h-3.602zm14.205 3.372c0 6.248 4.255 9.85 8.93 9.85 4.715 0 8.97-3.602 8.97-9.85 0-6.285-4.255-9.888-8.97-9.888-4.675 0-8.93 3.603-8.93 9.888zm4.524 0c0-3.794 1.648-6.285 4.407-6.285 2.76 0 4.447 2.49 4.447 6.285 0 3.756-1.686 6.248-4.446 6.248-2.758 0-4.406-2.492-4.406-6.248zm16.274 4.56c0 3.26 1.15 5.29 4.293 5.29 1.036 0 1.802-.153 2.34-.383l-.576-3.296c-.345.077-.498.077-.69.077-.46 0-.958-.384-.958-1.457v-22.46h-4.408v22.23zm11.14-17.284c1.57 0 2.72-1.034 2.72-2.49 0-1.495-1.15-2.53-2.72-2.53-1.572 0-2.722 1.035-2.722 2.53 0 1.456 1.15 2.49 2.72 2.49zm-2.224 22.115h4.408V19.417h-4.408v18.818zm9.223-6.362c0 4.063 1.61 6.822 5.98 6.822 1.493 0 2.797-.345 3.83-.69l-.765-3.257c-.537.23-1.303.42-1.955.42-1.8 0-2.644-1.072-2.644-3.295v-8.968h4.79v-3.488h-4.79V14.28h-3.68l-.536 5.137-2.913.192v3.295h2.683v8.968zM194.43 16.12c1.57 0 2.72-1.034 2.72-2.49 0-1.495-1.15-2.53-2.72-2.53-1.573 0-2.722 1.035-2.722 2.53 0 1.456 1.15 2.49 2.72 2.49zm-2.224 22.115h4.407V19.417h-4.407v18.818zm6.61-9.39c0 6.248 3.947 9.85 9.082 9.85 2.147 0 4.408-.843 6.17-2.414l-1.84-2.797c-1.033.843-2.337 1.61-3.87 1.61-2.95 0-5.02-2.492-5.02-6.248 0-3.794 2.108-6.285 5.135-6.285 1.188 0 2.185.498 3.18 1.38l2.11-2.798c-1.265-1.227-3.105-2.185-5.52-2.185-5.02 0-9.428 3.603-9.428 9.888zM218.5 16.12c1.572 0 2.722-1.034 2.722-2.49 0-1.495-1.15-2.53-2.72-2.53-1.573 0-2.722 1.035-2.722 2.53 0 1.456 1.15 2.49 2.72 2.49zm-2.222 22.115h4.407V19.417h-4.407v18.818zm6.295-5.06c0 3.297 2.3 5.52 5.596 5.52 2.222 0 4.138-1.11 5.825-2.53h.115l.345 2.07h3.602V27.082c0-5.25-2.3-8.125-7.013-8.125-2.99 0-5.634 1.15-7.704 2.453l1.61 2.95c1.648-.995 3.41-1.84 5.29-1.84 2.528 0 3.37 1.688 3.41 3.68-7.704.844-11.077 2.952-11.077 6.976zm4.293-.344c0-1.877 1.686-3.218 6.784-3.87v4.216c-1.38 1.303-2.568 2.07-4.1 2.07-1.573 0-2.684-.728-2.684-2.415zm14.35 5.405h4.41V25.09c1.57-1.534 2.643-2.34 4.29-2.34 2.07 0 2.953 1.15 2.953 4.256v11.23h4.406V26.43c0-4.752-1.763-7.473-5.787-7.473-2.57 0-4.485 1.34-6.172 2.99h-.153l-.307-2.53h-3.64v18.818z" fill="#333"/><g transform="translate(28.272 12.116)" fill="#333"><rect width="20.194" height="4.594" rx="2.297"/><rect y="10.326" width="20.194" height="4.594" rx="2.297"/><rect y="20.653" width="20.194" height="4.594" rx="2.297"/></g></g></svg>