<svg width="16" height="13" viewBox="0 0 16 13" xmlns="http://www.w3.org/2000/svg"><path d="M16.004 1.538c-.59.26-1.22.438-1.885.517.677-.406 1.196-1.05 1.442-1.815-.636.376-1.338.65-2.086.797C12.876.397 12.026 0 11.08 0 9.267 0 7.797 1.47 7.797 3.282c0 .257.03.508.085.748C5.152 3.893 2.734 2.586 1.115.6.832 1.084.67 1.648.67 2.25c0 1.14.58 2.144 1.46 2.732-.537-.018-1.043-.166-1.486-.412v.04c0 1.59 1.132 2.92 2.633 3.22-.275.075-.565.116-.865.116-.212 0-.417-.02-.618-.06.418 1.304 1.63 2.253 3.066 2.28-1.123.88-2.54 1.402-4.077 1.402-.265 0-.526-.016-.783-.045C1.453 12.456 3.178 13 5.032 13c6.04 0 9.34-5.002 9.34-9.34l-.01-.426c.645-.46 1.203-1.038 1.642-1.696z" fill="#FFF" fill-rule="evenodd"/></svg>